<mxfile host="app.diagrams.net" modified="2022-07-28T04:13:15.756Z" agent="5.0 (Macintosh; Intel Mac OS X 10_15_7) AppleWebKit/605.1.15 (KHTML, like Gecko) Version/16.0 Safari/605.1.15" etag="spqCFIz42O7JhbrFGkJf" version="20.2.2" type="github">
  <diagram id="Qi9pNJ9ZVBst19_8c5sX" name="第 1 页">
    <mxGraphModel dx="868" dy="742" grid="1" gridSize="10" guides="1" tooltips="1" connect="1" arrows="1" fold="1" page="1" pageScale="1" pageWidth="827" pageHeight="1169" math="0" shadow="0">
      <root>
        <mxCell id="0" />
        <mxCell id="1" parent="0" />
        <mxCell id="He_xypVhYWPBwkYtbZlm-3" value="" style="edgeStyle=orthogonalEdgeStyle;rounded=0;orthogonalLoop=1;jettySize=auto;html=1;" edge="1" parent="1" source="He_xypVhYWPBwkYtbZlm-1" target="He_xypVhYWPBwkYtbZlm-2">
          <mxGeometry relative="1" as="geometry" />
        </mxCell>
        <mxCell id="He_xypVhYWPBwkYtbZlm-1" value="subTemplateList" style="rounded=1;whiteSpace=wrap;html=1;" vertex="1" parent="1">
          <mxGeometry x="200" y="80" width="120" height="60" as="geometry" />
        </mxCell>
        <mxCell id="He_xypVhYWPBwkYtbZlm-5" value="" style="edgeStyle=orthogonalEdgeStyle;rounded=0;orthogonalLoop=1;jettySize=auto;html=1;" edge="1" parent="1" source="He_xypVhYWPBwkYtbZlm-2" target="He_xypVhYWPBwkYtbZlm-4">
          <mxGeometry relative="1" as="geometry" />
        </mxCell>
        <mxCell id="He_xypVhYWPBwkYtbZlm-7" value="" style="edgeStyle=orthogonalEdgeStyle;rounded=0;orthogonalLoop=1;jettySize=auto;html=1;" edge="1" parent="1" source="He_xypVhYWPBwkYtbZlm-2" target="He_xypVhYWPBwkYtbZlm-6">
          <mxGeometry relative="1" as="geometry" />
        </mxCell>
        <mxCell id="He_xypVhYWPBwkYtbZlm-2" value="sysTemplate === true" style="rhombus;whiteSpace=wrap;html=1;rounded=1;" vertex="1" parent="1">
          <mxGeometry x="165" y="180" width="190" height="80" as="geometry" />
        </mxCell>
        <mxCell id="He_xypVhYWPBwkYtbZlm-11" value="" style="edgeStyle=orthogonalEdgeStyle;rounded=0;orthogonalLoop=1;jettySize=auto;html=1;" edge="1" parent="1" source="He_xypVhYWPBwkYtbZlm-4" target="He_xypVhYWPBwkYtbZlm-10">
          <mxGeometry relative="1" as="geometry" />
        </mxCell>
        <mxCell id="He_xypVhYWPBwkYtbZlm-4" value="false" style="ellipse;whiteSpace=wrap;html=1;rounded=1;" vertex="1" parent="1">
          <mxGeometry x="440" y="275" width="120" height="60" as="geometry" />
        </mxCell>
        <mxCell id="He_xypVhYWPBwkYtbZlm-9" value="" style="edgeStyle=orthogonalEdgeStyle;rounded=0;orthogonalLoop=1;jettySize=auto;html=1;" edge="1" parent="1" source="He_xypVhYWPBwkYtbZlm-6" target="He_xypVhYWPBwkYtbZlm-8">
          <mxGeometry relative="1" as="geometry" />
        </mxCell>
        <mxCell id="He_xypVhYWPBwkYtbZlm-6" value="true" style="ellipse;whiteSpace=wrap;html=1;rounded=1;" vertex="1" parent="1">
          <mxGeometry x="200" y="280" width="120" height="60" as="geometry" />
        </mxCell>
        <mxCell id="He_xypVhYWPBwkYtbZlm-13" value="" style="edgeStyle=orthogonalEdgeStyle;rounded=0;orthogonalLoop=1;jettySize=auto;html=1;" edge="1" parent="1" source="He_xypVhYWPBwkYtbZlm-8" target="He_xypVhYWPBwkYtbZlm-12">
          <mxGeometry relative="1" as="geometry" />
        </mxCell>
        <mxCell id="He_xypVhYWPBwkYtbZlm-8" value="运送方式：货运" style="whiteSpace=wrap;html=1;rounded=1;" vertex="1" parent="1">
          <mxGeometry x="200" y="420" width="120" height="60" as="geometry" />
        </mxCell>
        <mxCell id="He_xypVhYWPBwkYtbZlm-15" value="" style="edgeStyle=orthogonalEdgeStyle;rounded=0;orthogonalLoop=1;jettySize=auto;html=1;" edge="1" parent="1" source="He_xypVhYWPBwkYtbZlm-10" target="He_xypVhYWPBwkYtbZlm-14">
          <mxGeometry relative="1" as="geometry" />
        </mxCell>
        <mxCell id="He_xypVhYWPBwkYtbZlm-10" value="运动方式：快递&lt;br&gt;（subTemplateDTO.chargeType === 0 ? ‘按重量’ ： ‘按件数’）" style="whiteSpace=wrap;html=1;rounded=1;" vertex="1" parent="1">
          <mxGeometry x="440" y="415" width="210" height="60" as="geometry" />
        </mxCell>
        <mxCell id="He_xypVhYWPBwkYtbZlm-21" value="" style="edgeStyle=orthogonalEdgeStyle;rounded=0;orthogonalLoop=1;jettySize=auto;html=1;" edge="1" parent="1" source="He_xypVhYWPBwkYtbZlm-12" target="He_xypVhYWPBwkYtbZlm-20">
          <mxGeometry relative="1" as="geometry" />
        </mxCell>
        <mxCell id="He_xypVhYWPBwkYtbZlm-12" value="运送到：全国" style="whiteSpace=wrap;html=1;rounded=1;" vertex="1" parent="1">
          <mxGeometry x="200" y="560" width="120" height="60" as="geometry" />
        </mxCell>
        <mxCell id="He_xypVhYWPBwkYtbZlm-19" value="" style="edgeStyle=orthogonalEdgeStyle;rounded=0;orthogonalLoop=1;jettySize=auto;html=1;" edge="1" parent="1" source="He_xypVhYWPBwkYtbZlm-14" target="He_xypVhYWPBwkYtbZlm-18">
          <mxGeometry relative="1" as="geometry" />
        </mxCell>
        <mxCell id="He_xypVhYWPBwkYtbZlm-23" value="" style="edgeStyle=orthogonalEdgeStyle;rounded=0;orthogonalLoop=1;jettySize=auto;html=1;" edge="1" parent="1" source="He_xypVhYWPBwkYtbZlm-14" target="He_xypVhYWPBwkYtbZlm-22">
          <mxGeometry relative="1" as="geometry" />
        </mxCell>
        <mxCell id="He_xypVhYWPBwkYtbZlm-14" value="运动方式：rateList" style="whiteSpace=wrap;html=1;rounded=1;" vertex="1" parent="1">
          <mxGeometry x="485" y="555" width="120" height="60" as="geometry" />
        </mxCell>
        <mxCell id="He_xypVhYWPBwkYtbZlm-18" value="toAreaCodeList.join(“”) === &amp;nbsp;1&lt;br&gt;? 全国（除指定地区以外）&lt;br&gt;: toCodeAreaText" style="whiteSpace=wrap;html=1;rounded=1;" vertex="1" parent="1">
          <mxGeometry x="700" y="445" width="345" height="280" as="geometry" />
        </mxCell>
        <mxCell id="He_xypVhYWPBwkYtbZlm-20" value="费率：sourceName &amp;nbsp;+ discount * 100 + ‘折’&amp;nbsp;" style="whiteSpace=wrap;html=1;rounded=1;" vertex="1" parent="1">
          <mxGeometry x="127.5" y="700" width="265" height="60" as="geometry" />
        </mxCell>
        <mxCell id="He_xypVhYWPBwkYtbZlm-22" value="费率：" style="whiteSpace=wrap;html=1;rounded=1;" vertex="1" parent="1">
          <mxGeometry x="485" y="695" width="120" height="60" as="geometry" />
        </mxCell>
      </root>
    </mxGraphModel>
  </diagram>
</mxfile>
